<svg version="1.0" xmlns="http://www.w3.org/2000/svg" width="853.333" height="853.333" viewBox="0 0 640 640"><path d="M310.2 1.5c-1.8.8-3.3 1.4-3.5 1.3-.1-.1-2.4.6-5.2 1.6-2.7 1-5.7 2.1-6.5 2.3-5 1.7-43.7 15.2-61 21.3-11.3 3.9-23.9 8.3-28 9.7-27.1 9.5-25.1 8.5-26.5 12.8-1.1 3.1-3.5 11.8-4 14.5-.1.3-.9 3.2-1.9 6.5-1 3.3-2 6.8-2.2 7.7-1 4.5-1.3 5.5-2.3 8.1-.6 1.5-1.3 3.9-1.5 5.4-.3 1.4-1.4 5.8-2.6 9.7-6.4 22.4-7.9 28-7.4 28.7.2.4.1.9-.4 1.1-.6.2-2.6 6.8-5.7 18.8-.2.8-2 7.3-4 14.5-3 10.9-4.9 17.5-9 32.5-.2.8-2 7.3-4 14.5-4.7 16.5-11.4 40.5-11.9 42.5-.2.8-4.1 14.8-8.6 31s-8.6 31.1-9.1 33c-.5 1.9-1.2 4.2-1.4 5-.2.8-1.4 5.1-2.5 9.5s-2.5 9.1-3 10.5c-.5 1.4-1.2 3.6-1.4 5-.3 1.4-1.4 5.6-2.6 9.5-1.2 3.8-2.3 7.7-2.5 8.5-.3 1.6-2.7 10.3-5.1 19-.9 3-1.7 5.9-1.8 6.5-1.5 5.8-2 7.6-3.2 11.2-.7 2.3-1.6 5.2-1.8 6.5-.3 1.3-2.6 9.7-5.1 18.8-2.5 9.1-4.8 17.2-5 18-.1.8-1.5 5.5-3 10.5-1.4 4.9-2.8 10.1-3.1 11.5-.2 1.4-.9 3.6-1.4 5-.7 2-3 10.1-5.4 20-.3.8-1.6 5.5-3 10.4-1.4 4.8-2.6 9.6-2.6 10.7 0 1-.4 2-.9 2.3-.5.3-1.1 1.8-1.4 3.3-.8 4.2-1.5 7.3-3.2 12.8-3 10.1-4.6 16-5.1 18-.2 1.1-3.8 14.1-7.9 29-4.2 14.8-7.7 27.7-7.9 28.5-1.1 4.4-2.9 11-4.2 14.7-.7 2.4-1.6 5.6-1.9 7.2-.3 1.7-1 4.2-1.5 5.6-.6 1.5-1 2.8-1 3 0 .5 6.9-1.5 24-6.9 7.4-2.4 18.2-5.8 24-7.6 5.8-1.8 13.9-4.3 18-5.7 4.1-1.4 8.2-2.6 9-2.8.8-.2 2.6-.8 4-1.3s2.8-1 3.3-1.1c2-.2 6.3-1.4 7.2-2 .6-.3 1.2-.6 1.5-.6.7-.1 18.2-5.5 20-6.2.8-.3 2-.7 2.5-.8 3.7-.9 12.2-3.7 13.3-4.3 1.1-.8 4.4-11.6 18.9-62.7 2.5-8.8 5.6-19.8 7-24.5 1.3-4.7 2.9-10.3 3.4-12.5.5-2.2 1.4-5.1 1.9-6.5.5-1.4 3.9-13.3 7.5-26.5 3.7-13.2 6.9-24.7 7.2-25.5.3-.8.7-2 .9-2.5 1.1-4.1 3.6-13.3 3.9-14.5.5-1.9 9.9-34.4 12.6-43.5 1.1-3.9 2.2-7.7 2.4-8.5.4-1.8 2.2-8.1 8.5-30.5.5-1.7 2.2-7.7 3.9-13.5 1.6-5.8 5.9-20.9 9.6-33.5 3.6-12.7 6.8-23.7 7-24.5.2-.8 2-7.4 4-14.5 2.1-7.2 4.6-16.2 5.7-20 1-3.9 3.5-12.4 5.4-19 1.9-6.6 3.7-12.7 3.9-13.5 1.1-4 4.6-16.4 6.9-24.5 1.5-5 2.8-9.9 3.1-11 .3-1.1 1.4-5.2 2.6-9 1.1-3.9 2.1-7.5 2.3-8 .1-.6.8-3 1.5-5.5.8-2.5 1.5-5.2 1.6-6 .2-.8.4-1.5.5-1.5.1 0 .3-.7.5-1.5s1.1-4 2-7c.9-3 1.8-6.2 2-7 .2-.8 1.8-6.5 3.5-12.5 1.8-6.1 3.6-12.6 4.1-14.5 1.1-4.1 1.1-4 4.4-15.5 1.5-5 3-10.4 3.5-12 2.5-9.7 7.2-26.2 7.7-27.5.3-.8.7-2 .9-2.5.1-.6 1.4-5.3 2.9-10.5s3.1-11.1 3.6-13c.5-1.9 1.1-4 1.3-4.5 2-6.8 2.7-9.8 2.4-10-.2-.2-1.8.3-3.6 1zm5.2 199.3c.2 1.5 3.6 13.5 7.5 26.7s7.3 24.9 7.5 26c.4 1.9 1.1 4 2.3 7.5.4.8.7 1.9.8 2.5.2.5 1.7 5.9 3.5 12 1.7 6 3.9 13.5 4.7 16.5.8 3 1.8 6.2 2.1 7 .3.8.6 1.9.7 2.5.2.5 1.3 4.3 2.5 8.4 1.2 4.1 2.3 8.1 2.6 9 .2.9 1.3 4.7 2.5 8.6 1.1 3.8 2.4 8.3 2.9 10 .5 1.6 3.6 12.4 7 24 3.4 11.5 7 23.9 8 27.5 2.7 9.4 11.7 40.4 14 48 1.1 3.6 2.2 7.4 2.5 8.5.2 1.1 2.4 8.6 4.8 16.7 2.5 8.2 4.2 14.8 4 14.8-.3 0 0 .7.7 1.5s.9 1.5.6 1.5c-.4 0-.2 1 .5 2.1.6 1.2 1.3 3.6 1.6 5.3.3 1.7.9 3.8 1.4 4.7.4.9 1 2.7 1.3 4 .3 1.3 1.5 5.5 2.6 9.4 1.2 3.8 2.3 7.7 2.4 8.5.2 1.5 4 14 5.7 19 .7 2.1 2.2 7.5 3.5 12.5 1 3.8 13.9 48.1 14.1 48.4.4.6 68.2.5 68.8-.1.3-.3-.1-2.4-.9-4.7-.9-2.3-1.5-4.3-1.5-4.6-.1-1.8-1.5-6.2-2.4-7.2-.5-.7-.7-1.3-.4-1.3.3 0 .1-1.5-.4-3.3-.6-1.7-1.2-4-1.4-4.9-.2-.9-.8-2.5-1.3-3.5-.6-1-1-2-.9-2.3.1-.9-2.6-11.5-3.2-12.5-.5-.9-3.5-11.1-4.6-16-.3-1.1-1.4-4.8-2.5-8.2-1.1-3.4-2-6.9-2-7.8 0-.8-.4-2.3-1-3.3-.5-.9-1.5-3.7-2.1-6.2-.7-2.5-1.4-5-1.5-5.5-.2-.6-.8-2.6-1.3-4.5s-3.3-11.4-6.1-21c-7-23.6-12.1-41.2-12.6-43-.2-.8-1.3-4.7-2.4-8.5-1.2-3.9-2.3-7.9-2.5-9-.3-1.1-.9-3.1-1.4-4.5-.9-2.3-4.1-13.1-4.7-15.5-.1-.6-2.3-8.2-4.9-17-2.6-8.8-5.4-18.5-6.1-21.5-.8-3-1.8-6.2-2.1-7-.3-.8-.7-2.2-.9-3-.2-.8-2.5-8.9-5.2-18s-5.3-17.9-5.7-19.5c-1.2-4.4-1.2-4.5-1.5-4.8-.1-.1-.3-.9-.5-1.7-.5-2.2-12.2-42.2-15.1-51.7-1.4-4.5-2.7-9-2.9-10-.2-1-2-7.2-4-13.8-2-6.6-3.7-12.5-3.8-13-2.5-9.6-4.2-15.2-4.9-16.2-.7-.9-9.8-1.2-34.9-1.2h-34l.5 2.7zm127.1-1.5c.7 1.9 10.1 36.9 10.9 40.7.3 1.1.7 2.4 1 2.8.3.5.7 1.9 1 3.3 1.1 5.6 1.6 7.4 3.2 12.8 1.5 5.2 4.1 14.6 4.9 18.1.2.8.8 3 1.4 4.8.5 1.8 1 3.3.9 3.5 0 .1.6 2.2 1.3 4.7.6 2.5 1.3 5.2 1.5 6 .1.8 1.8 7.2 3.8 14.1 1.9 7 3.7 13.7 4 15 .3 1.3 2.8 10.7 5.6 20.9 4.8 17.2 5.5 20 6.5 24 .2.8.4 1.5.5 1.5.1 0 .3.7.5 1.5.1.8 1.3 5.1 2.5 9.5s2.3 8.7 2.4 9.5c.2.8 1 4 1.9 7 1.6 5.9 13.6 50.3 14.2 52.9 1.2 5.1 6.5 24 7.4 26.3.6 1.6.9 2.8.6 2.8-.2 0 .6 3 1.7 6.8 1.1 3.7 2.3 8.3 2.8 10.2.4 1.9 2 7.8 3.4 13 1.5 5.2 2.8 10.2 3 11 .6 2.2 5.5 20.7 7.1 26.5.8 2.7 2.2 7.7 3.1 11 .9 3.3 1.7 6.4 1.8 7 .1.5.5 1.6.9 2.2.5.7.6 1.3.4 1.3-.3 0 .6 3.9 2 8.7 1.3 4.9 2.6 9.9 2.9 11.3.3 1.4.9 2.9 1.4 3.4.7.7 47.8 1.2 61.6.7l2.1-.1-1.9-7.3c-1.1-3.9-2.1-7.9-2.4-8.7-.2-.8-1.7-6.7-3.5-13-3.2-12.1-6.8-25.4-7.5-28-.2-.8-1.5-5.8-3-11-1.4-5.2-2.7-10.2-2.9-11-.2-.8-1-4-1.9-7-3.9-14.5-6.7-24.6-7-26-.2-.8-1.6-6-3.1-11.5-1.4-5.5-3.2-12.3-4-15-.7-2.8-1.6-5.7-1.9-6.5-.3-.8-.8-2.6-1-4-.3-1.4-2.1-8.4-4.1-15.5-2-7.2-3.8-13.7-3.9-14.5-.2-.8-2.3-8.5-4.6-17-3.8-13.9-4.5-16.9-5.3-20.5-.2-.6-.6-1.6-1.1-2.3-.4-.7-.5-1.6-.2-1.9.3-.3.1-1.4-.5-2.5s-1.3-3.2-1.5-4.6c-.3-1.5-1.2-5.1-2.1-8.1-.8-2.9-1.7-6.1-1.8-7-.2-.9-.4-1.7-.5-1.9-.3-.2-.4-.5-1.4-4.7-.5-1.7-1.6-5.9-2.7-9.5-1-3.6-2-7.6-2.3-9-.2-1.4-1.1-4.6-1.9-7.3-.8-2.6-1.3-4.7-1.1-4.7.2 0-.1-1.2-.7-2.8-.6-1.5-1.9-5.9-2.9-9.7-2.8-10.8-5.6-21.4-7.5-28-.9-3.3-1.8-6.7-2.1-7.5-.2-.8-.8-3.1-1.2-5-.5-1.9-2.4-8.8-4.1-15.3-1.8-6.4-3.4-12.5-3.6-13.5-.2-.9-1.1-3.8-1.9-6.4-.8-2.5-1.2-4.9-.9-5.2.4-.3.1-.6-.6-.6s-1-.4-.7-.8c.2-.4-.8-5.2-2.3-10.7l-2.8-10-32.1-.2c-24.1-.1-32 .2-31.7 1z"/></svg>