<svg width="14" height="14" fill="none" xmlns="http://www.w3.org/2000/svg"><path d="M.719 3.144c0-.663.244-1.3.68-1.768A2.24 2.24 0 013.04.643h3.714a2.24 2.24 0 011.642.733c.436.469.68 1.105.68 1.768v.5h-.929v-.5c0-.398-.146-.78-.408-1.061a1.345 1.345 0 00-.985-.44H3.041c-.37 0-.724.159-.986.44a1.56 1.56 0 00-.408 1.06v4.001c0 .398.147.78.408 1.061.262.282.616.44.986.44h5.186a1.48 1.48 0 01.609-.794 1.31 1.31 0 01.94-.185c.324.06.618.241.83.512.212.27.328.613.328.967s-.116.696-.328.967c-.212.27-.506.451-.83.511a1.309 1.309 0 01-.94-.184 1.48 1.48 0 01-.609-.794H3.041a2.24 2.24 0 01-1.642-.733 2.601 2.601 0 01-.68-1.768v-4zm4.643 7.5v.501c0 .663.245 1.3.68 1.768a2.24 2.24 0 001.642.732H11.4a2.24 2.24 0 001.642-.732c.435-.469.68-1.105.68-1.768v-4c0-.664-.245-1.3-.68-1.769a2.241 2.241 0 00-1.642-.732H6.212a1.48 1.48 0 00-.608-.794 1.31 1.31 0 00-.94-.185c-.325.06-.619.242-.83.512-.212.27-.328.613-.328.967s.116.697.328.967c.211.27.505.452.83.512.323.06.656-.006.94-.185.283-.179.499-.46.608-.794H11.4c.37 0 .724.158.985.44.261.28.408.663.408 1.06v4.001c0 .398-.147.78-.408 1.06-.261.282-.616.44-.985.44H7.684c-.37 0-.724-.158-.985-.44a1.56 1.56 0 01-.408-1.06v-.5h-.929z" fill="#C4C4C4"/></svg>