<svg width="138" height="40" viewBox="0 0 138 40" fill="none" xmlns="http://www.w3.org/2000/svg">
<path d="M26.6426 12.381H30.639L37.2996 37.1429H33.3032L26.6426 12.381Z" fill="white"/>
<path d="M18.6494 12.381H22.9788L30.1945 37.1429H25.8651L18.6494 12.381Z" fill="white"/>
<path d="M10.2764 2.91667L0 40L7.99278 37.5L18.6498 0L10.2764 2.91667Z" fill="white"/>
<path d="M57.5578 24.791L53.6739 14.3718L49.79 24.791H57.5578ZM61.709 31.4935H60.0767L58.1769 26.421H49.1708L47.271 31.4935H45.6387L53.6739 10L61.709 31.4935Z" fill="white"/>
<path d="M71.6946 12.0564V23.3592H76.9154C78.3601 23.3592 79.5938 22.8108 80.6164 21.714C81.6296 20.5969 82.1362 19.2615 82.1362 17.7078C82.1362 16.154 81.6296 14.8237 80.6164 13.7168C79.5938 12.6099 78.3601 12.0564 76.9154 12.0564H71.6946ZM79.6172 24.4407C81.0151 25.4359 82.0283 26.553 82.6568 27.7919C83.2948 29.0512 83.6137 30.285 83.6137 31.4935H82.0939C82.0939 29.8585 81.4795 28.3657 80.2505 27.015C79.0028 25.6745 77.5064 25.0043 75.7615 25.0043H71.6946V31.4935H70.1748V10.4113H76.9154C78.7823 10.4113 80.3725 11.1272 81.6859 12.5591C83.0086 13.9808 83.67 15.6971 83.67 17.7078C83.67 19.0686 83.3417 20.3329 82.685 21.5008C82.047 22.6178 81.0245 23.5978 79.6172 24.4407Z" fill="white"/>
<path d="M93.0224 31.4935V10.4113H94.5422V31.4935H93.0224Z" fill="white"/>
<path d="M115.687 29.8483V31.4935H104.359V10.4113H115.687V12.0564H105.879V20.0689H113.787V21.714H105.879V29.8483H115.687Z" fill="white"/>
<path d="M131.47 31.9048C129.875 31.9048 128.431 31.4935 127.136 30.6709C125.579 29.696 124.584 28.4165 124.153 26.8322L125.588 26.3753C125.916 27.5939 126.704 28.584 127.952 29.3457C128.975 29.9753 130.152 30.2901 131.484 30.2901C131.691 30.2901 131.869 30.285 132.019 30.2749C132.169 30.2647 132.347 30.2393 132.554 30.1987C133.135 30.0971 133.665 29.9296 134.144 29.696C135.589 28.9851 136.372 27.7665 136.494 26.0401C136.56 25.116 136.306 24.2934 135.734 23.5724C134.88 22.496 133.534 21.8917 131.695 21.7597C128.843 21.5566 126.794 20.8458 125.546 19.6271C124.627 18.7436 124.167 17.6012 124.167 16.1997C124.167 14.2804 124.866 12.747 126.264 11.5994C127.549 10.5331 129.106 10 130.936 10C133.093 10 134.899 10.8276 136.353 12.4829C136.813 13.0212 137.212 13.6102 137.549 14.25C137.662 14.4531 137.746 14.6308 137.803 14.7831L136.41 15.3467C136.372 15.2756 136.264 15.0725 136.086 14.7374C135.908 14.3921 135.631 14.0164 135.256 13.6102C134.092 12.2798 132.652 11.6147 130.936 11.6147C130.42 11.6147 129.894 11.6858 129.359 11.8279C128.731 11.9701 128.163 12.1986 127.657 12.5134C126.325 13.3563 125.658 14.5851 125.658 16.1997C125.658 18.5354 127.704 19.8505 131.794 20.145C134.045 20.3075 135.734 21.0946 136.86 22.5061C137.704 23.5623 138.079 24.7809 137.986 26.162C137.845 28.0204 137.108 29.4726 135.776 30.5186C134.594 31.4427 133.168 31.9048 131.498 31.9048H131.47Z" fill="white"/>
</svg>
