<svg width="14" height="14" fill="none" xmlns="http://www.w3.org/2000/svg"><path d="M11.25.643H3.037C1.717.643.643 1.664.643 2.92v10.726l4.79-2.275 4.79 2.275v-5.85h3.421V2.919c0-1.255-1.074-2.276-2.395-2.276zM8.853 11.542l-3.42-1.626-3.423 1.626V2.919c0-.538.46-.975 1.027-.975h6.057a2.152 2.152 0 00-.24.975v8.623zm3.422-5.048h-2.053V2.92c0-.538.46-.975 1.026-.975.566 0 1.027.437 1.027.975v3.575z" fill="#C4C4C4"/><path d="M6.118 3.894H4.75v1.3H3.381v1.3h1.368v1.3h1.37v-1.3h1.368v-1.3H6.118v-1.3z" fill="#C4C4C4"/></svg>