<svg width="138" height="40" fill="none" xmlns="http://www.w3.org/2000/svg"><path d="M26.643 12.381h3.996l6.66 24.762h-3.996l-6.66-24.762zm-7.993 0h4.329l7.216 24.762h-4.33L18.65 12.38zm-8.374-9.464L0 40l7.993-2.5L18.65 0l-8.374 2.917zm47.282 21.874l-3.884-10.42-3.884 10.42h7.768zm4.151 6.703h-1.632l-1.9-5.073H49.17l-1.9 5.073h-1.632L53.674 10l8.035 21.494zm9.986-19.438V23.36h5.22c1.445 0 2.679-.548 3.701-1.645 1.014-1.117 1.52-2.452 1.52-4.006 0-1.554-.506-2.884-1.52-3.991-1.022-1.107-2.256-1.66-3.7-1.66h-5.221zm7.922 12.385c1.398.995 2.411 2.112 3.04 3.35.638 1.26.957 2.494.957 3.703h-1.52c0-1.636-.614-3.128-1.843-4.479-1.248-1.34-2.745-2.01-4.49-2.01h-4.066v6.489h-1.52V10.41h6.74c1.867 0 3.457.716 4.77 2.148 1.324 1.422 1.985 3.138 1.985 5.149a7.61 7.61 0 01-.985 3.793c-.638 1.117-1.66 2.097-3.068 2.94zm13.405 7.053V10.41h1.52v21.083h-1.52zm22.665-1.646v1.646h-11.328V10.41h11.328v1.645h-9.808v8.013h7.908v1.645h-7.908v8.134h9.808zm15.783 2.057c-1.595 0-3.039-.412-4.334-1.234-1.557-.975-2.552-2.255-2.983-3.839l1.435-.457c.328 1.219 1.116 2.209 2.364 2.97 1.023.63 2.2.945 3.532.945.207 0 .385-.005.535-.015.15-.01.328-.036.535-.076a5.944 5.944 0 001.59-.503c1.445-.71 2.228-1.93 2.35-3.656a3.445 3.445 0 00-.76-2.468c-.854-1.076-2.2-1.68-4.039-1.812-2.852-.203-4.901-.914-6.149-2.133-.919-.883-1.379-2.026-1.379-3.427 0-1.92.699-3.453 2.097-4.6 1.285-1.067 2.842-1.6 4.672-1.6 2.157 0 3.963.828 5.417 2.483a9.59 9.59 0 011.196 1.767c.113.203.197.38.254.533l-1.393.564-.324-.61c-.178-.345-.455-.72-.83-1.127-1.164-1.33-2.604-1.995-4.32-1.995a6.09 6.09 0 00-1.577.213 5.493 5.493 0 00-1.702.685c-1.332.843-1.999 2.072-1.999 3.687 0 2.335 2.046 3.65 6.136 3.945 2.251.163 3.94.95 5.066 2.361.844 1.056 1.219 2.275 1.126 3.656-.141 1.858-.878 3.31-2.21 4.357-1.182.924-2.608 1.386-4.278 1.386h-.028z" fill="#fff"/></svg>