<svg width="14" height="14" viewBox="0 0 14 14" fill="none" xmlns="http://www.w3.org/2000/svg">
<path d="M11.2494 0.643433H3.03767C1.71695 0.643433 0.642578 1.66409 0.642578 2.91877V13.6454L5.43277 11.37L10.223 13.6454V7.79451H13.6445V2.91877C13.6445 1.66409 12.5702 0.643433 11.2494 0.643433ZM8.85434 11.5417L5.43277 9.91642L2.0112 11.5417V2.91877C2.0112 2.38114 2.47175 1.94363 3.03767 1.94363H9.09521C8.93859 2.24728 8.85625 2.58063 8.85434 2.91877V11.5417ZM12.2759 6.49431H10.223V2.91877C10.223 2.38114 10.6835 1.94363 11.2494 1.94363C11.8154 1.94363 12.2759 2.38114 12.2759 2.91877V6.49431Z" fill="#C4C4C4"/>
<path d="M6.11811 3.89404H4.74949V5.19424H3.38086V6.49443H4.74949V7.79463H6.11811V6.49443H7.48674V5.19424H6.11811V3.89404Z" fill="#C4C4C4"/>
</svg>
