<svg width="15" height="60" viewBox="0 0 15 60" fill="none" xmlns="http://www.w3.org/2000/svg">
<path d="M6.73918 59.185C7.12971 59.5755 7.76287 59.5755 8.1534 59.185L14.5174 52.821C14.9079 52.4305 14.9079 51.7973 14.5174 51.4068C14.1268 51.0163 13.4937 51.0163 13.1031 51.4068L7.44629 57.0636L1.78944 51.4068C1.39891 51.0163 0.765748 51.0163 0.375223 51.4068C-0.0153011 51.7973 -0.015301 52.4305 0.375223 52.821L6.73918 59.185ZM6.44629 4.43982L6.44629 58.4778L8.44629 58.4778L8.44629 4.43982L6.44629 4.43982Z" fill="url(#paint0_linear_744_641)"/>
<line x1="7.44629" y1="2.43884" x2="7.44629" y2="0.438843" stroke="#99A9FF" stroke-width="2"/>
<defs>
<linearGradient id="paint0_linear_744_641" x1="7.44632" y1="58.4779" x2="8.86093" y2="4.47688" gradientUnits="userSpaceOnUse">
<stop stop-color="#66FFE5"/>
<stop offset="1" stop-color="#99A9FF"/>
</linearGradient>
</defs>
</svg>
