<svg width="14" height="14" viewBox="0 0 14 14" fill="none" xmlns="http://www.w3.org/2000/svg">
<path d="M0.71875 3.14381C0.71875 2.48067 0.963365 1.84469 1.39878 1.37578C1.8342 0.906864 2.42475 0.643433 3.04053 0.643433H6.75537C7.37114 0.643433 7.9617 0.906864 8.39711 1.37578C8.83253 1.84469 9.07715 2.48067 9.07715 3.14381V3.64388H8.14844V3.14381C8.14844 2.74592 8.00167 2.36434 7.74042 2.08299C7.47917 1.80164 7.12483 1.64358 6.75537 1.64358H3.04053C2.67106 1.64358 2.31673 1.80164 2.05548 2.08299C1.79423 2.36434 1.64746 2.74592 1.64746 3.14381V7.14441C1.64746 7.54229 1.79423 7.92388 2.05548 8.20523C2.31673 8.48657 2.67106 8.64463 3.04053 8.64463H8.22738C8.33692 8.31098 8.55246 8.02976 8.8359 7.8507C9.11935 7.67163 9.45246 7.60624 9.77634 7.66609C10.1002 7.72593 10.394 7.90716 10.6059 8.17773C10.8177 8.44831 10.9338 8.79081 10.9338 9.14471C10.9338 9.4986 10.8177 9.84111 10.6059 10.1117C10.394 10.3823 10.1002 10.5635 9.77634 10.6233C9.45246 10.6832 9.11935 10.6178 8.8359 10.4387C8.55246 10.2597 8.33692 9.97844 8.22738 9.64478H3.04053C2.42475 9.64478 1.8342 9.38135 1.39878 8.91244C0.963365 8.44353 0.71875 7.80755 0.71875 7.14441V3.14381ZM5.3623 10.6449V11.145C5.3623 11.8081 5.60692 12.4441 6.04234 12.913C6.47775 13.382 7.06831 13.6454 7.68408 13.6454H11.3989C12.0147 13.6454 12.6052 13.382 13.0407 12.913C13.4761 12.4441 13.7207 11.8081 13.7207 11.145V7.14441C13.7207 6.48127 13.4761 5.84529 13.0407 5.37638C12.6052 4.90746 12.0147 4.64403 11.3989 4.64403H6.21207C6.10253 4.31038 5.88699 4.02916 5.60355 3.8501C5.3201 3.67103 4.98699 3.60564 4.66311 3.66549C4.33922 3.72533 4.04541 3.90656 3.8336 4.17713C3.62178 4.44771 3.50561 4.79021 3.50561 5.14411C3.50561 5.498 3.62178 5.84051 3.8336 6.11108C4.04541 6.38166 4.33922 6.56288 4.66311 6.62273C4.98699 6.68257 5.3201 6.61718 5.60355 6.43812C5.88699 6.25905 6.10253 5.97784 6.21207 5.64418H11.3989C11.7684 5.64418 12.1227 5.80224 12.384 6.08359C12.6452 6.36493 12.792 6.74652 12.792 7.14441V11.145C12.792 11.5429 12.6452 11.9245 12.384 12.2058C12.1227 12.4872 11.7684 12.6452 11.3989 12.6452H7.68408C7.31462 12.6452 6.96028 12.4872 6.69903 12.2058C6.43778 11.9245 6.29101 11.5429 6.29101 11.145V10.6449H5.3623Z" fill="#C4C4C4"/>
</svg>
