<?xml version="1.0" standalone="no"?>
<!DOCTYPE svg PUBLIC "-//W3C//DTD SVG 20010904//EN"
 "http://www.w3.org/TR/2001/REC-SVG-20010904/DTD/svg10.dtd">
<svg version="1.0" xmlns="http://www.w3.org/2000/svg"
 width="640.000000pt" height="640.000000pt" viewBox="0 0 640.000000 640.000000"
 preserveAspectRatio="xMidYMid meet">
<metadata>
Created by potrace 1.14, written by Peter Selinger 2001-2017
</metadata>
<g transform="translate(0.000000,640.000000) scale(0.100000,-0.100000)"
fill="#000000" stroke="none">
<path d="M3102 6385 c-18 -8 -33 -14 -35 -13 -1 1 -24 -6 -52 -16 -27 -10 -57
-21 -65 -23 -50 -17 -437 -152 -610 -213 -113 -39 -239 -83 -280 -97 -271 -95
-251 -85 -265 -128 -11 -31 -35 -118 -40 -145 -1 -3 -9 -32 -19 -65 -10 -33
-20 -68 -22 -77 -10 -45 -13 -55 -23 -81 -6 -15 -13 -39 -15 -54 -3 -14 -14
-58 -26 -97 -64 -224 -79 -280 -74 -287 2 -4 1 -9 -4 -11 -6 -2 -26 -68 -57
-188 -2 -8 -20 -73 -40 -145 -30 -109 -49 -175 -90 -325 -2 -8 -20 -73 -40
-145 -47 -165 -114 -405 -119 -425 -2 -8 -41 -148 -86 -310 -45 -162 -86 -311
-91 -330 -5 -19 -12 -42 -14 -50 -2 -8 -14 -51 -25 -95 -11 -44 -25 -91 -30
-105 -5 -14 -12 -36 -14 -50 -3 -14 -14 -56 -26 -95 -12 -38 -23 -77 -25 -85
-3 -16 -27 -103 -51 -190 -9 -30 -17 -59 -18 -65 -15 -58 -20 -76 -32 -112 -7
-23 -16 -52 -18 -65 -3 -13 -26 -97 -51 -188 -25 -91 -48 -172 -50 -180 -1 -8
-15 -55 -30 -105 -14 -49 -28 -101 -31 -115 -2 -14 -9 -36 -14 -50 -7 -20 -30
-101 -54 -200 -3 -8 -16 -55 -30 -104 -14 -48 -26 -96 -26 -107 0 -10 -4 -20
-9 -23 -5 -3 -11 -18 -14 -33 -8 -42 -15 -73 -32 -128 -30 -101 -46 -160 -51
-180 -2 -11 -38 -141 -79 -290 -42 -148 -77 -277 -79 -285 -11 -44 -29 -110
-42 -147 -7 -24 -16 -56 -19 -72 -3 -17 -10 -42 -15 -56 -6 -15 -10 -28 -10
-30 0 -5 69 15 240 69 74 24 182 58 240 76 58 18 139 43 180 57 41 14 82 26
90 28 8 2 26 8 40 13 14 5 28 10 33 11 20 2 63 14 72 20 6 3 12 6 15 6 7 1
182 55 200 62 8 3 20 7 25 8 37 9 122 37 133 43 11 8 44 116 189 627 25 88 56
198 70 245 13 47 29 103 34 125 5 22 14 51 19 65 5 14 39 133 75 265 37 132
69 247 72 255 3 8 7 20 9 25 11 41 36 133 39 145 5 19 99 344 126 435 11 39
22 77 24 85 4 18 22 81 85 305 5 17 22 77 39 135 16 58 59 209 96 335 36 127
68 237 70 245 2 8 20 74 40 145 21 72 46 162 57 200 10 39 35 124 54 190 19
66 37 127 39 135 11 40 46 164 69 245 15 50 28 99 31 110 3 11 14 52 26 90 11
39 21 75 23 80 1 6 8 30 15 55 8 25 15 52 16 60 2 8 4 15 5 15 1 0 3 7 5 15 2
8 11 40 20 70 9 30 18 62 20 70 2 8 18 65 35 125 18 61 36 126 41 145 11 41
11 40 44 155 15 50 30 104 35 120 25 97 72 262 77 275 3 8 7 20 9 25 1 6 14
53 29 105 15 52 31 111 36 130 5 19 11 40 13 45 20 68 27 98 24 100 -2 2 -18
-3 -36 -10z"/>
<path d="M3154 4392 c2 -15 36 -135 75 -267 39 -132 73 -249 75 -260 4 -19 11
-40 23 -75 4 -8 7 -19 8 -25 2 -5 17 -59 35 -120 17 -60 39 -135 47 -165 8
-30 18 -62 21 -70 3 -8 6 -19 7 -25 2 -5 13 -43 25 -84 12 -41 23 -81 26 -90
2 -9 13 -47 25 -86 11 -38 24 -83 29 -100 5 -16 36 -124 70 -240 34 -115 70
-239 80 -275 27 -94 117 -404 140 -480 11 -36 22 -74 25 -85 2 -11 24 -86 48
-167 25 -82 42 -148 40 -148 -3 0 0 -7 7 -15 7 -8 9 -15 6 -15 -4 0 -2 -10 5
-21 6 -12 13 -36 16 -53 3 -17 9 -38 14 -47 4 -9 10 -27 13 -40 3 -13 15 -55
26 -94 12 -38 23 -77 24 -85 2 -15 40 -140 57 -190 7 -21 22 -75 35 -125 10
-38 139 -481 141 -484 4 -6 682 -5 688 1 3 3 -1 24 -9 47 -9 23 -15 43 -15 46
-1 18 -15 62 -24 72 -5 7 -7 13 -4 13 3 0 1 15 -4 33 -6 17 -12 40 -14 49 -2
9 -8 25 -13 35 -6 10 -10 20 -9 23 1 9 -26 115 -32 125 -5 9 -35 111 -46 160
-3 11 -14 48 -25 82 -11 34 -20 69 -20 78 0 8 -4 23 -10 33 -5 9 -15 37 -21
62 -7 25 -14 50 -15 55 -2 6 -8 26 -13 45 -5 19 -33 114 -61 210 -70 236 -121
412 -126 430 -2 8 -13 47 -24 85 -12 39 -23 79 -25 90 -3 11 -9 31 -14 45 -9
23 -41 131 -47 155 -1 6 -23 82 -49 170 -26 88 -54 185 -61 215 -8 30 -18 62
-21 70 -3 8 -7 22 -9 30 -2 8 -25 89 -52 180 -27 91 -53 179 -57 195 -12 44
-12 45 -15 48 -1 1 -3 9 -5 17 -5 22 -122 422 -151 517 -14 45 -27 90 -29 100
-2 10 -20 72 -40 138 -20 66 -37 125 -38 130 -25 96 -42 152 -49 162 -7 9 -98
12 -349 12 l-340 0 5 -27z"/>
<path d="M4425 4407 c7 -19 101 -369 109 -407 3 -11 7 -24 10 -28 3 -5 7 -19
10 -33 11 -56 16 -74 32 -128 15 -52 41 -146 49 -181 2 -8 8 -30 14 -48 5 -18
10 -33 9 -35 0 -1 6 -22 13 -47 6 -25 13 -52 15 -60 1 -8 18 -72 38 -141 19
-70 37 -137 40 -150 3 -13 28 -107 56 -209 48 -172 55 -200 65 -240 2 -8 4
-15 5 -15 1 0 3 -7 5 -15 1 -8 13 -51 25 -95 12 -44 23 -87 24 -95 2 -8 10
-40 19 -70 16 -59 136 -503 142 -529 12 -51 65 -240 74 -263 6 -16 9 -28 6
-28 -2 0 6 -30 17 -68 11 -37 23 -83 28 -102 4 -19 20 -78 34 -130 15 -52 28
-102 30 -110 6 -22 55 -207 71 -265 8 -27 22 -77 31 -110 9 -33 17 -64 18 -70
1 -5 5 -16 9 -22 5 -7 6 -13 4 -13 -3 0 6 -39 20 -87 13 -49 26 -99 29 -113 3
-14 9 -29 14 -34 7 -7 478 -12 616 -7 l21 1 -19 73 c-11 39 -21 79 -24 87 -2
8 -17 67 -35 130 -32 121 -68 254 -75 280 -2 8 -15 58 -30 110 -14 52 -27 102
-29 110 -2 8 -10 40 -19 70 -39 145 -67 246 -70 260 -2 8 -16 60 -31 115 -14
55 -32 123 -40 150 -7 28 -16 57 -19 65 -3 8 -8 26 -10 40 -3 14 -21 84 -41
155 -20 72 -38 137 -39 145 -2 8 -23 85 -46 170 -38 139 -45 169 -53 205 -2 6
-6 16 -11 23 -4 7 -5 16 -2 19 3 3 1 14 -5 25 -6 11 -13 32 -15 46 -3 15 -12
51 -21 81 -8 29 -17 61 -18 70 -2 9 -4 17 -5 19 -3 2 -4 5 -14 47 -5 17 -16
59 -27 95 -10 36 -20 76 -23 90 -2 14 -11 46 -19 73 -8 26 -13 47 -11 47 2 0
-1 12 -7 28 -6 15 -19 59 -29 97 -28 108 -56 214 -75 280 -9 33 -18 67 -21 75
-2 8 -8 31 -12 50 -5 19 -24 88 -41 153 -18 64 -34 125 -36 135 -2 9 -11 38
-19 64 -8 25 -12 49 -9 52 4 3 1 6 -6 6 -7 0 -10 4 -7 8 2 4 -8 52 -23 107
l-28 100 -321 2 c-241 1 -320 -2 -317 -10z"/>
</g>
</svg>
